<svg width="295" height="62" viewBox="0 0 295 62" fill="none" xmlns="http://www.w3.org/2000/svg">
<path d="M39.7914 20.682V28.8662L39.7897 28.8646L5.56853 41.8165L5.57344 33.6315L39.7914 20.682Z" fill="#000819"/>
<path d="M0.851021 27.7269L44.5117 11.3193L44.5113 0.721741L0.848145 17.1289L0.851021 27.7269Z" fill="#000819"/>
<path d="M0.848145 61.7768L44.5105 45.3669L44.5117 34.7717L0.848145 51.1803V61.7768Z" fill="#000819"/>
<path d="M85.1192 42.319C85.6914 41.0082 85.9763 39.587 85.9539 38.1542L85.9532 38.1561C85.9663 37.0349 85.7914 35.9195 85.4366 34.8567C85.0929 33.8583 84.5547 32.9395 83.8531 32.1548C83.0292 31.2816 82.0717 30.5468 81.0176 29.9794C79.6512 29.2193 78.2237 28.5761 76.7511 28.0555V28.0586C75.8194 27.7135 74.999 27.3812 74.2893 27.0618C73.7159 26.8098 73.1588 26.5216 72.6217 26.1979C72.248 25.969 71.8993 25.7011 71.5815 25.398C71.3379 25.1668 71.1283 24.9019 70.9587 24.6114C70.8008 24.3244 70.6877 24.0147 70.6232 23.6929V23.6883C70.5379 23.2651 70.497 22.8338 70.502 22.4013C70.4896 21.8627 70.5935 21.328 70.8062 20.8338C71.0171 20.3842 71.3325 19.9922 71.7248 19.6919C72.1985 19.3327 72.7372 19.0699 73.3101 18.9186C74.058 18.7232 74.8283 18.6311 75.6005 18.6448C76.7689 18.6467 77.9334 18.777 79.0739 19.0332C80.3106 19.3125 81.5191 19.7087 82.6825 20.2161L83.6389 20.6264L83.9848 19.6229L85.1068 16.4019L85.4165 15.5181L84.5752 15.1387C83.2095 14.5221 81.7809 14.0599 80.3153 13.7604C78.7921 13.4519 77.2422 13.2986 75.6889 13.3037C74.241 13.2873 72.7985 13.487 71.4082 13.8961C70.1541 14.2686 68.983 14.882 67.9587 15.703V15.7073C66.9784 16.4849 66.1911 17.4837 65.6598 18.6233C65.1347 19.7957 64.8722 21.0714 64.8915 22.3584C64.878 23.5447 65.0533 24.7261 65.4104 25.8563C65.7459 26.9054 66.2846 27.8761 66.9958 28.7119C67.7722 29.5991 68.685 30.3538 69.6989 30.9473C70.9321 31.6786 72.2321 32.2882 73.5808 32.7679L73.5831 32.7718C74.5939 33.1411 75.4689 33.487 76.209 33.8115C76.8322 34.0791 77.4407 34.3817 78.0303 34.719L78.033 34.7163C78.4361 34.9519 78.8164 35.2253 79.1685 35.5338C79.4303 35.7635 79.66 36.0291 79.8512 36.3219H79.8469C80.0156 36.6059 80.1377 36.9151 80.2087 37.2384C80.3033 37.6534 80.3485 38.0781 80.3434 38.504C80.3581 39.1229 80.2357 39.7372 79.9859 40.3023C79.7392 40.8198 79.3716 41.2695 78.9145 41.6115C78.3411 42.0319 77.6894 42.3311 76.9986 42.4922C76.0418 42.7207 75.0604 42.8283 74.0769 42.8127C73.3692 42.8131 72.6615 42.7761 71.9572 42.7016C71.2425 42.6244 70.5321 42.5101 69.8286 42.3596C69.1078 42.2063 68.417 42.0249 67.7568 41.8159C67.1116 41.6139 66.4772 41.3783 65.856 41.1096L64.4934 40.5168V46.2401L65.054 46.5162C66.2803 47.0942 67.5815 47.4931 68.9186 47.7014C70.5819 47.9717 72.2646 48.1 73.9495 48.0844C75.5789 48.1043 77.2032 47.8925 78.7751 47.4557C80.1635 47.0633 81.4635 46.4035 82.6041 45.5119C83.686 44.6691 84.5493 43.5736 85.1192 42.319Z" fill="#000819"/>
<path d="M265.337 28.9842H253.004L253.002 28.9822H251.95V34.4279H259.372V42.5964C257.502 42.9751 255.596 43.1647 253.684 43.1619C251.905 43.1966 250.132 42.9301 248.449 42.3749C247.064 41.9025 245.817 41.1175 244.812 40.0852C243.786 38.9903 243.028 37.6887 242.591 36.2752C242.047 34.4968 241.788 32.648 241.824 30.794C241.794 29.0097 242.062 27.2325 242.617 25.5303C243.095 24.1028 243.887 22.7913 244.937 21.6845C245.955 20.6258 247.213 19.8073 248.612 19.2932C250.221 18.7248 251.926 18.4488 253.64 18.4791C254.988 18.4826 256.333 18.63 257.648 18.9184C259.099 19.2394 260.515 19.6894 261.879 20.263L262.829 20.6589L263.247 19.7269L264.741 16.3845L265.165 15.433L264.188 15.0243C262.591 14.356 260.925 13.853 259.217 13.5236C257.462 13.1871 255.676 13.0198 253.887 13.0242C252.159 13.0154 250.436 13.1942 248.75 13.5559C247.183 13.8944 245.669 14.4333 244.25 15.1582C242.885 15.8556 241.637 16.7477 240.548 17.8036C239.46 18.8718 238.545 20.0905 237.831 21.4196C237.084 22.806 236.528 24.2813 236.178 25.8071C235.801 27.4436 235.615 29.1156 235.624 30.792C235.588 33.2892 235.963 35.7761 236.734 38.1611C237.426 40.2572 238.578 42.1869 240.113 43.8159C241.611 45.3895 243.467 46.6071 245.536 47.373C247.8 48.1831 250.201 48.5794 252.617 48.5415C253.804 48.5415 254.944 48.5033 256.029 48.43C257.106 48.3563 258.124 48.2468 259.083 48.1006C260.051 47.9513 260.979 47.7733 261.866 47.5661C262.786 47.3515 263.698 47.1037 264.601 46.8226L265.337 46.5931V28.9842Z" fill="#000819"/>
<path d="M272.112 48.544H293.943V48.5416H294.959V43.1313H277.844V33.2885H294.1V27.9177H277.844V19.5546H294.959V14.1685H272.112V48.544Z" fill="#000819"/>
<path d="M175.141 48.544H196.972V48.5416H197.988V43.1313H180.873V33.2885H197.129V27.9177H180.873V19.5546H197.988V14.1685H175.141V48.544Z" fill="#000819"/>
<path d="M130.7 14.1685H124.88V48.579H146.594V43.1334H130.7V14.1685Z" fill="#000819"/>
<path d="M143.172 19.5535V14.1685H171.73V19.5535H160.365V48.544H154.513V19.5535H143.172Z" fill="#000819"/>
<path fill-rule="evenodd" clip-rule="evenodd" d="M103.201 14.1685H107.803L121.469 48.544H115.314L111.249 38.3003H99.5566L95.5386 48.544H89.4764L103.201 14.1685ZM104.906 22.193L100.9 33.6515H108.901L104.906 22.193Z" fill="#000819"/>
<path fill-rule="evenodd" clip-rule="evenodd" d="M204.762 14.1569V48.5324H210.474C210.474 48.5324 216.036 48.7848 219.485 48.0652C222.294 47.4793 224.14 46.8458 226.47 44.9874C230.442 41.8202 232.205 37.0914 232.205 30.5095C232.205 23.9276 229.857 19.9037 226.464 17.1588C223.976 15.1462 220.782 14.1569 216.32 14.1628C214.597 14.165 210.474 14.1569 210.474 14.1569H204.762ZM210.474 18.7439V43.7407C210.474 43.7407 215.648 43.8836 218.078 43.323C220.887 42.6747 222.627 41.6176 223.976 39.9064C225.325 38.1953 226.464 35.3943 226.464 30.864C226.464 26.3338 225.273 23.2268 222.604 21.0133C219.867 18.7439 216.15 18.7439 213.797 18.7439C211.443 18.7439 210.474 18.7439 210.474 18.7439Z" fill="#000819"/>
</svg>
